<svg xmlns="http://www.w3.org/2000/svg" viewBox="0 0 23 23"><path d="M1 1h7v7h-7zM10 1h2v1h-2zM15 1h7v7h-7zM2 2v5h5v-5zM12 2h1v1h-1zM16 2v5h5v-5zM3 3h3v3h-3zM9 3h2v2h1v3h-1v-1h-1v2h-1zM13 3h1v6h-1v1h-2v-1h1v-1h1zM17 3h3v3h-3zM1 9h1v1h-1zM3 9h5v1h-1v1h-1v-1h-1v2h-1v-2h-1zM15 9h5v1h2v1h-1v1h1v1h-1v1h1v1h-1v1h-1v-1h-1v1h-1v-1h-2v-1h2v-3h-3zM8 10h3v2h-1v-1h-1v3h-2v-1h1v-1h-1v-1h1zM1 11h1v1h-1zM12 11h3v2h1v1h-1v1h-1v-3h-1v2h-2v2h-1v-1h-1v-1h1v-1h2zM19 11v1h1v-1zM2 12h1v1h-1zM5 12h1v1h-1zM16 12h1v1h-1zM1 13h1v1h-1zM3 13h1v1h-1zM19 13v1h1v-1zM1 15h7v7h-7zM12 15h2v1h-1v1h-1zM15 15h1v1h-1zM2 16v5h5v-5zM9 16h1v4h-1zM14 16h1v1h-1zM19 16h1v1h-1zM21 16h1v2h-2v-1h1zM3 17h3v3h-3zM13 17h1v1h-1zM15 17h3v1h1v1h-3v-1h-1zM14 18h1v2h-4v-1h3zM16 20h1v1h1v1h-3v-1h1zM18 20h2v1h-2zM9 21h1v1h-1zM12 21h1v1h-1zM20 21h1v1h-1z"/></svg>